<?xml version="1.0" standalone="no"?>
<!DOCTYPE svg PUBLIC "-//W3C//DTD SVG 20010904//EN"
 "http://www.w3.org/TR/2001/REC-SVG-20010904/DTD/svg10.dtd">
<svg version="1.0" xmlns="http://www.w3.org/2000/svg"
 width="225.000000pt" height="225.000000pt" viewBox="0 0 225.000000 225.000000"
 preserveAspectRatio="xMidYMid meet">
<metadata>
Created by potrace 1.16, written by Peter Selinger 2001-2019
</metadata>
<g transform="translate(0.000000,225.000000) scale(0.100000,-0.100000)"
fill="#000000" stroke="none">
<path d="M0 1125 l0 -1125 1125 0 1125 0 0 1125 0 1125 -1125 0 -1125 0 0
-1125z m1607 804 c237 -81 379 -337 318 -574 -27 -103 -63 -161 -154 -247 -79
-74 -342 -259 -452 -317 -45 -24 -48 -24 -73 -8 -28 19 -34 53 -13 79 6 8 50
38 97 66 117 70 259 169 334 233 120 104 162 183 160 309 -1 42 -9 95 -18 120
-42 114 -148 214 -256 240 -81 19 -197 9 -264 -24 -66 -32 -136 -98 -165 -154
-48 -95 -81 -376 -81 -697 0 -194 -6 -215 -57 -215 -40 0 -308 160 -451 269
-100 76 -158 139 -190 209 -23 49 -27 70 -27 153 0 90 2 99 38 171 60 122 161
197 294 218 84 14 202 -9 225 -44 14 -20 8 -53 -12 -71 -18 -17 -25 -17 -74
-5 -146 35 -280 -26 -336 -152 -30 -69 -35 -126 -15 -194 14 -50 27 -69 83
-125 37 -36 108 -92 157 -125 88 -60 241 -154 248 -154 2 0 7 102 10 228 8
305 35 480 89 586 26 52 122 151 173 182 126 73 278 89 412 43z m-107 -374
c75 -39 78 -151 6 -199 -89 -58 -213 40 -173 136 29 70 101 97 167 63z m-729
-134 c20 -20 29 -39 29 -61 0 -43 -47 -90 -90 -90 -43 0 -90 47 -90 90 0 43
47 90 90 90 22 0 41 -9 61 -29z m-257 -852 c14 -7 28 -19 31 -27 10 -27 -10
-34 -43 -15 -29 16 -34 17 -59 3 -56 -31 -55 -112 1 -139 26 -12 33 -12 63 4
37 20 48 16 38 -14 -8 -25 -65 -45 -104 -36 -40 8 -78 48 -85 89 -19 98 71
174 158 135z m207 -15 c29 -26 25 -78 -7 -101 l-26 -19 36 -39 c20 -21 36 -39
36 -40 0 -2 -7 -6 -16 -9 -24 -9 -50 10 -75 54 -30 54 -49 52 -49 -3 0 -48 -5
-58 -26 -50 -19 7 -20 218 -1 227 23 10 110 -3 128 -20z m99 -64 c0 -100 24
-130 81 -100 16 9 19 22 19 94 0 62 4 85 14 89 7 3 19 0 25 -6 14 -14 14 -125
0 -166 -24 -69 -129 -81 -168 -19 -18 30 -27 164 -12 182 7 8 19 12 27 9 10
-4 14 -25 14 -83z m226 82 c7 -4 35 -40 62 -81 l51 -73 3 78 c2 62 6 79 18 79
12 0 16 -21 18 -113 3 -112 2 -113 -20 -110 -14 2 -41 29 -75 77 l-53 74 0
-76 c0 -70 -2 -77 -20 -77 -19 0 -20 7 -20 108 0 120 5 135 36 114z m360 -13
c16 -13 19 -49 4 -49 -6 0 -21 7 -34 15 -29 19 -72 11 -86 -15 -14 -27 -12
-83 4 -105 19 -26 83 -26 102 0 12 16 14 17 20 2 24 -63 -89 -88 -152 -33 -32
27 -43 105 -22 146 27 52 122 74 164 39z m92 -32 l3 -47 54 0 54 0 3 48 c2 34
7 47 18 47 12 0 16 -20 18 -109 2 -79 -1 -112 -10 -117 -20 -13 -28 0 -28 47
l0 44 -55 0 -55 0 0 -44 c0 -41 -17 -65 -34 -49 -8 9 -8 218 1 227 16 15 28
-3 31 -47z m336 39 c34 -14 66 -65 66 -105 0 -100 -123 -157 -189 -87 -70 74
-25 202 72 205 10 1 32 -5 51 -13z"/>
<path d="M1747 520 c-58 -46 -17 -152 53 -135 34 8 50 32 50 75 0 68 -53 99
-103 60z"/>
</g>
</svg>
